<svg width="1090" height="379" viewBox="0 0 1090 379" fill="none" xmlns="http://www.w3.org/2000/svg">
<path d="M269.332 155V38.6364H315.923C324.484 38.6364 331.624 39.9053 337.344 42.4432C343.063 44.9811 347.363 48.5038 350.241 53.0114C353.12 57.4811 354.56 62.6326 354.56 68.4659C354.56 73.0114 353.651 77.0076 351.832 80.4545C350.014 83.8636 347.514 86.6667 344.332 88.8636C341.188 91.0227 337.59 92.5568 333.537 93.4659V94.6023C337.969 94.7917 342.116 96.0417 345.98 98.3523C349.882 100.663 353.045 103.902 355.469 108.068C357.893 112.197 359.105 117.121 359.105 122.841C359.105 129.015 357.571 134.527 354.503 139.375C351.473 144.186 346.984 147.992 341.037 150.795C335.09 153.598 327.76 155 319.048 155H269.332ZM293.935 134.886H313.991C320.848 134.886 325.848 133.58 328.991 130.966C332.135 128.314 333.707 124.792 333.707 120.398C333.707 117.178 332.931 114.337 331.378 111.875C329.825 109.413 327.609 107.481 324.73 106.08C321.889 104.678 318.499 103.977 314.56 103.977H293.935V134.886ZM293.935 87.3295H312.173C315.545 87.3295 318.537 86.7424 321.151 85.5682C323.802 84.3561 325.885 82.6515 327.401 80.4545C328.954 78.2576 329.73 75.625 329.73 72.5568C329.73 68.3523 328.234 64.9621 325.241 62.3864C322.287 59.8106 318.082 58.5227 312.628 58.5227H293.935V87.3295ZM482.045 96.8182C482.045 109.508 479.64 120.303 474.83 129.205C470.057 138.106 463.542 144.905 455.284 149.602C447.064 154.261 437.822 156.591 427.557 156.591C417.216 156.591 407.936 154.242 399.716 149.545C391.496 144.848 385 138.049 380.227 129.148C375.455 120.246 373.068 109.47 373.068 96.8182C373.068 84.1288 375.455 73.3333 380.227 64.4318C385 55.5303 391.496 48.75 399.716 44.0909C407.936 39.3939 417.216 37.0455 427.557 37.0455C437.822 37.0455 447.064 39.3939 455.284 44.0909C463.542 48.75 470.057 55.5303 474.83 64.4318C479.64 73.3333 482.045 84.1288 482.045 96.8182ZM457.102 96.8182C457.102 88.5985 455.871 81.6667 453.409 76.0227C450.985 70.3788 447.557 66.0985 443.125 63.1818C438.693 60.2652 433.504 58.8068 427.557 58.8068C421.61 58.8068 416.42 60.2652 411.989 63.1818C407.557 66.0985 404.11 70.3788 401.648 76.0227C399.223 81.6667 398.011 88.5985 398.011 96.8182C398.011 105.038 399.223 111.97 401.648 117.614C404.11 123.258 407.557 127.538 411.989 130.455C416.42 133.371 421.61 134.83 427.557 134.83C433.504 134.83 438.693 133.371 443.125 130.455C447.557 127.538 450.985 123.258 453.409 117.614C455.871 111.97 457.102 105.038 457.102 96.8182ZM524.872 38.6364V155H500.27V38.6364H524.872ZM545.114 155V38.6364H569.716V134.716H619.602V155H545.114ZM635.895 155V38.6364H714.304V58.9205H660.497V86.6477H710.27V106.932H660.497V134.716H714.531V155H635.895ZM733.864 155V38.6364H779.773C788.561 38.6364 796.061 40.2083 802.273 43.3523C808.523 46.4583 813.277 50.8712 816.534 56.5909C819.83 62.2727 821.477 68.9583 821.477 76.6477C821.477 84.375 819.811 91.0227 816.477 96.5909C813.144 102.121 808.314 106.364 801.989 109.318C795.701 112.273 788.087 113.75 779.148 113.75H748.409V93.9773H775.17C779.867 93.9773 783.769 93.3333 786.875 92.0455C789.981 90.7576 792.292 88.8258 793.807 86.25C795.36 83.6742 796.136 80.4735 796.136 76.6477C796.136 72.7841 795.36 69.5265 793.807 66.875C792.292 64.2235 789.962 62.2159 786.818 60.8523C783.712 59.4508 779.792 58.75 775.057 58.75H758.466V155H733.864ZM796.705 102.045L825.625 155H798.466L770.17 102.045H796.705ZM112.784 273.375H87.8977C87.4432 270.155 86.5152 267.295 85.1136 264.795C83.7121 262.258 81.9129 260.098 79.7159 258.318C77.5189 256.538 74.9811 255.174 72.1023 254.227C69.2614 253.28 66.1742 252.807 62.8409 252.807C56.8182 252.807 51.572 254.303 47.1023 257.295C42.6326 260.25 39.1667 264.568 36.7045 270.25C34.2424 275.894 33.0114 282.75 33.0114 290.818C33.0114 299.114 34.2424 306.083 36.7045 311.727C39.2045 317.371 42.6894 321.633 47.1591 324.511C51.6288 327.39 56.7992 328.83 62.6705 328.83C65.9659 328.83 69.0152 328.394 71.8182 327.523C74.6591 326.652 77.178 325.383 79.375 323.716C81.572 322.011 83.3902 319.947 84.8295 317.523C86.3068 315.098 87.3295 312.333 87.8977 309.227L112.784 309.341C112.14 314.682 110.53 319.833 107.955 324.795C105.417 329.72 101.989 334.133 97.6705 338.034C93.3902 341.898 88.2765 344.966 82.3295 347.239C76.4205 349.473 69.7348 350.591 62.2727 350.591C51.8939 350.591 42.6136 348.242 34.4318 343.545C26.2879 338.848 19.8485 332.049 15.1136 323.148C10.4167 314.246 8.06818 303.47 8.06818 290.818C8.06818 278.129 10.4545 267.333 15.2273 258.432C20 249.53 26.4773 242.75 34.6591 238.091C42.8409 233.394 52.0455 231.045 62.2727 231.045C69.0152 231.045 75.2652 231.992 81.0227 233.886C86.8182 235.78 91.9508 238.545 96.4205 242.182C100.89 245.78 104.527 250.193 107.33 255.42C110.17 260.648 111.989 266.633 112.784 273.375ZM237.358 290.818C237.358 303.508 234.953 314.303 230.142 323.205C225.369 332.106 218.854 338.905 210.597 343.602C202.377 348.261 193.134 350.591 182.869 350.591C172.528 350.591 163.248 348.242 155.028 343.545C146.809 338.848 140.313 332.049 135.54 323.148C130.767 314.246 128.381 303.47 128.381 290.818C128.381 278.129 130.767 267.333 135.54 258.432C140.313 249.53 146.809 242.75 155.028 238.091C163.248 233.394 172.528 231.045 182.869 231.045C193.134 231.045 202.377 233.394 210.597 238.091C218.854 242.75 225.369 249.53 230.142 258.432C234.953 267.333 237.358 278.129 237.358 290.818ZM212.415 290.818C212.415 282.598 211.184 275.667 208.722 270.023C206.297 264.379 202.869 260.098 198.438 257.182C194.006 254.265 188.816 252.807 182.869 252.807C176.922 252.807 171.733 254.265 167.301 257.182C162.869 260.098 159.422 264.379 156.96 270.023C154.536 275.667 153.324 282.598 153.324 290.818C153.324 299.038 154.536 305.97 156.96 311.614C159.422 317.258 162.869 321.538 167.301 324.455C171.733 327.371 176.922 328.83 182.869 328.83C188.816 328.83 194.006 327.371 198.438 324.455C202.869 321.538 206.297 317.258 208.722 311.614C211.184 305.97 212.415 299.038 212.415 290.818ZM352.912 232.636V349H331.662L281.037 275.761H280.185V349H255.582V232.636H277.173L327.401 305.818H328.423V232.636H352.912ZM368.807 252.92V232.636H464.375V252.92H428.75V349H404.432V252.92H368.807ZM480.114 349V232.636H526.023C534.811 232.636 542.311 234.208 548.523 237.352C554.773 240.458 559.527 244.871 562.784 250.591C566.08 256.273 567.727 262.958 567.727 270.648C567.727 278.375 566.061 285.023 562.727 290.591C559.394 296.121 554.564 300.364 548.239 303.318C541.951 306.273 534.337 307.75 525.398 307.75H494.659V287.977H521.42C526.117 287.977 530.019 287.333 533.125 286.045C536.231 284.758 538.542 282.826 540.057 280.25C541.61 277.674 542.386 274.473 542.386 270.648C542.386 266.784 541.61 263.527 540.057 260.875C538.542 258.223 536.212 256.216 533.068 254.852C529.962 253.451 526.042 252.75 521.307 252.75H504.716V349H480.114ZM542.955 296.045L571.875 349H544.716L516.42 296.045H542.955ZM692.045 290.818C692.045 303.508 689.64 314.303 684.83 323.205C680.057 332.106 673.542 338.905 665.284 343.602C657.064 348.261 647.822 350.591 637.557 350.591C627.216 350.591 617.936 348.242 609.716 343.545C601.496 338.848 595 332.049 590.227 323.148C585.455 314.246 583.068 303.47 583.068 290.818C583.068 278.129 585.455 267.333 590.227 258.432C595 249.53 601.496 242.75 609.716 238.091C617.936 233.394 627.216 231.045 637.557 231.045C647.822 231.045 657.064 233.394 665.284 238.091C673.542 242.75 680.057 249.53 684.83 258.432C689.64 267.333 692.045 278.129 692.045 290.818ZM667.102 290.818C667.102 282.598 665.871 275.667 663.409 270.023C660.985 264.379 657.557 260.098 653.125 257.182C648.693 254.265 643.504 252.807 637.557 252.807C631.61 252.807 626.42 254.265 621.989 257.182C617.557 260.098 614.11 264.379 611.648 270.023C609.223 275.667 608.011 282.598 608.011 290.818C608.011 299.038 609.223 305.97 611.648 311.614C614.11 317.258 617.557 321.538 621.989 324.455C626.42 327.371 631.61 328.83 637.557 328.83C643.504 328.83 648.693 327.371 653.125 324.455C657.557 321.538 660.985 317.258 663.409 311.614C665.871 305.97 667.102 299.038 667.102 290.818ZM710.27 349V232.636H734.872V328.716H784.759V349H710.27ZM801.051 349V232.636H825.653V328.716H875.54V349H801.051ZM891.832 349V232.636H970.241V252.92H916.435V280.648H966.207V300.932H916.435V328.716H970.469V349H891.832ZM989.801 349V232.636H1035.71C1044.5 232.636 1052 234.208 1058.21 237.352C1064.46 240.458 1069.21 244.871 1072.47 250.591C1075.77 256.273 1077.41 262.958 1077.41 270.648C1077.41 278.375 1075.75 285.023 1072.41 290.591C1069.08 296.121 1064.25 300.364 1057.93 303.318C1051.64 306.273 1044.02 307.75 1035.09 307.75H1004.35V287.977H1031.11C1035.8 287.977 1039.71 287.333 1042.81 286.045C1045.92 284.758 1048.23 282.826 1049.74 280.25C1051.3 277.674 1052.07 274.473 1052.07 270.648C1052.07 266.784 1051.3 263.527 1049.74 260.875C1048.23 258.223 1045.9 256.216 1042.76 254.852C1039.65 253.451 1035.73 252.75 1030.99 252.75H1014.4V349H989.801ZM1052.64 296.045L1081.56 349H1054.4L1026.11 296.045H1052.64Z" fill="url(#paint0_linear_109_7)"/>
<path d="M274.332 160H272.332V162H274.332V160ZM274.332 43.6364V41.6364H272.332V43.6364H274.332ZM342.344 47.4432L341.533 49.2713L341.533 49.2713L342.344 47.4432ZM355.241 58.0114L353.556 59.0879L353.56 59.0943L355.241 58.0114ZM356.832 85.4545L358.597 86.3957L358.601 86.3876L356.832 85.4545ZM349.332 93.8636L350.465 95.5123L350.469 95.5094L349.332 93.8636ZM338.537 98.4659L338.099 96.5144L336.537 96.8648V98.4659H338.537ZM338.537 99.6023H336.537V101.519L338.452 101.6L338.537 99.6023ZM350.98 103.352L349.954 105.069L349.961 105.073L350.98 103.352ZM360.469 113.068L358.74 114.074L358.744 114.081L360.469 113.068ZM359.503 144.375L357.813 143.306L357.811 143.309L359.503 144.375ZM346.037 155.795L345.184 153.986L345.184 153.986L346.037 155.795ZM298.935 139.886H296.935V141.886H298.935V139.886ZM333.991 135.966L335.27 137.504L335.275 137.499L335.281 137.495L333.991 135.966ZM336.378 116.875L334.686 117.942L334.686 117.942L336.378 116.875ZM329.73 111.08L328.845 112.873L328.855 112.878L329.73 111.08ZM298.935 108.977V106.977H296.935V108.977H298.935ZM298.935 92.3295H296.935V94.3295H298.935V92.3295ZM326.151 90.5682L326.97 92.3926L326.982 92.3871L326.151 90.5682ZM332.401 85.4545L330.767 84.3001L330.761 84.3095L330.754 84.3191L332.401 85.4545ZM330.241 67.3864L328.927 68.8939L328.937 68.9022L330.241 67.3864ZM298.935 63.5227V61.5227H296.935V63.5227H298.935ZM276.332 160V43.6364H272.332V160H276.332ZM274.332 45.6364H320.923V41.6364H274.332V45.6364ZM320.923 45.6364C329.301 45.6364 336.144 46.8803 341.533 49.2713L343.155 45.6151C337.104 42.9303 329.667 41.6364 320.923 41.6364V45.6364ZM341.533 49.2713C346.956 51.6776 350.922 54.9644 353.556 59.0879L356.927 56.9349C353.803 52.0432 349.171 48.2845 343.155 45.6151L341.533 49.2713ZM353.56 59.0943C356.211 63.21 357.56 67.9779 357.56 73.4659H361.56C361.56 67.2873 360.03 61.7521 356.923 56.9284L353.56 59.0943ZM357.56 73.4659C357.56 77.7404 356.706 81.4065 355.063 84.5215L358.601 86.3876C360.595 82.6086 361.56 78.2823 361.56 73.4659H357.56ZM355.068 84.5134C353.4 87.6406 351.115 90.2021 348.196 92.2178L350.469 95.5094C353.913 93.1312 356.629 90.0867 358.597 86.3957L355.068 84.5134ZM348.2 92.215C345.284 94.2174 341.926 95.6561 338.099 96.5144L338.975 100.417C343.254 99.4575 347.093 97.828 350.465 95.5123L348.2 92.215ZM336.537 98.4659V99.6023H340.537V98.4659H336.537ZM338.452 101.6C342.546 101.775 346.371 102.926 349.954 105.069L352.007 101.636C347.862 99.1572 343.392 97.8079 338.622 97.6041L338.452 101.6ZM349.961 105.073C353.55 107.199 356.476 110.183 358.74 114.074L362.197 112.062C359.613 107.62 356.213 104.127 351.999 101.631L349.961 105.073ZM358.744 114.081C360.956 117.848 362.105 122.408 362.105 127.841H366.105C366.105 121.835 364.83 116.546 362.193 112.056L358.744 114.081ZM362.105 127.841C362.105 133.667 360.663 138.801 357.813 143.306L361.193 145.444C364.479 140.252 366.105 134.364 366.105 127.841H362.105ZM357.811 143.309C355.014 147.749 350.841 151.32 345.184 153.986L346.89 157.605C353.126 154.665 357.931 150.622 361.195 145.441L357.811 143.309ZM345.184 153.986C339.576 156.63 332.557 158 324.048 158V162C332.964 162 340.604 160.567 346.89 157.605L345.184 153.986ZM324.048 158H274.332V162H324.048V158ZM298.935 141.886H318.991V137.886H298.935V141.886ZM318.991 141.886C326.024 141.886 331.594 140.56 335.27 137.504L332.713 134.428C330.102 136.599 325.671 137.886 318.991 137.886V141.886ZM335.281 137.495C338.909 134.435 340.707 130.335 340.707 125.398H336.707C336.707 129.248 335.361 132.194 332.702 134.437L335.281 137.495ZM340.707 125.398C340.707 121.842 339.845 118.623 338.069 115.808L334.686 117.942C336.017 120.051 336.707 122.514 336.707 125.398H340.707ZM338.069 115.808C336.298 113 333.785 110.829 330.606 109.281L328.855 112.878C331.433 114.133 333.351 115.826 334.686 117.942L338.069 115.808ZM330.615 109.286C327.44 107.72 323.733 106.977 319.56 106.977V110.977C323.265 110.977 326.338 111.636 328.845 112.873L330.615 109.286ZM319.56 106.977H298.935V110.977H319.56V106.977ZM296.935 108.977V139.886H300.935V108.977H296.935ZM298.935 94.3295H317.173V90.3295H298.935V94.3295ZM317.173 94.3295C320.778 94.3295 324.057 93.7012 326.97 92.3925L325.331 88.7438C323.017 89.7837 320.311 90.3295 317.173 90.3295V94.3295ZM326.982 92.3871C329.931 91.0392 332.308 89.1113 334.047 86.59L330.754 84.3191C329.463 86.1917 327.674 87.6729 325.319 88.7492L326.982 92.3871ZM334.034 86.609C335.858 84.0283 336.73 80.9783 336.73 77.5568H332.73C332.73 80.2717 332.049 82.4868 330.767 84.3001L334.034 86.609ZM336.73 77.5568C336.73 72.8128 335.012 68.8534 331.546 65.8706L328.937 68.9022C331.456 71.0708 332.73 73.8917 332.73 77.5568H336.73ZM331.556 65.8788C328.116 62.8803 323.377 61.5227 317.628 61.5227V65.5227C322.788 65.5227 326.458 66.7409 328.927 68.8939L331.556 65.8788ZM317.628 61.5227H298.935V65.5227H317.628V61.5227ZM296.935 63.5227V92.3295H300.935V63.5227H296.935ZM479.83 134.205L478.07 133.254L478.067 133.259L479.83 134.205ZM460.284 154.602L461.27 156.342L461.273 156.341L460.284 154.602ZM404.716 154.545L405.708 152.809L405.708 152.809L404.716 154.545ZM385.227 134.148L383.465 135.093L383.465 135.093L385.227 134.148ZM385.227 69.4318L386.99 70.3769L386.99 70.3769L385.227 69.4318ZM404.716 49.0909L405.702 50.8309L405.708 50.8274L404.716 49.0909ZM460.284 49.0909L459.292 50.8274L459.301 50.8328L460.284 49.0909ZM479.83 69.4318L478.067 70.3769L478.07 70.3827L479.83 69.4318ZM458.409 81.0227L456.571 81.8121L456.576 81.8224L458.409 81.0227ZM448.125 68.1818L447.026 69.8525L447.026 69.8525L448.125 68.1818ZM416.989 68.1818L418.088 69.8525L418.088 69.8525L416.989 68.1818ZM406.648 81.0227L404.815 80.223L404.81 80.2334L406.648 81.0227ZM406.648 122.614L404.81 123.403L404.815 123.413L406.648 122.614ZM416.989 135.455L418.088 133.784L418.088 133.784L416.989 135.455ZM448.125 135.455L447.026 133.784L447.026 133.784L448.125 135.455ZM458.409 122.614L456.576 121.814L456.571 121.824L458.409 122.614ZM485.045 101.818C485.045 114.258 482.688 124.709 478.07 133.254L481.589 135.155C486.593 125.897 489.045 114.757 489.045 101.818H485.045ZM478.067 133.259C473.46 141.851 467.204 148.365 459.295 152.864L461.273 156.341C469.879 151.446 476.653 144.361 481.592 135.15L478.067 133.259ZM459.298 152.862C451.405 157.336 442.507 159.591 432.557 159.591V163.591C443.137 163.591 452.724 161.186 461.27 156.342L459.298 152.862ZM432.557 159.591C422.531 159.591 413.598 157.318 405.708 152.809L403.724 156.282C412.273 161.167 421.901 163.591 432.557 163.591V159.591ZM405.708 152.809C397.836 148.311 391.598 141.796 386.99 133.203L383.465 135.093C388.402 144.302 395.156 151.386 403.724 156.282L405.708 152.809ZM386.99 133.203C382.408 124.656 380.068 114.222 380.068 101.818H376.068C376.068 114.718 378.502 125.836 383.465 135.093L386.99 133.203ZM380.068 101.818C380.068 89.3757 382.408 78.9226 386.99 70.3769L383.465 68.4868C378.501 77.7441 376.068 88.8819 376.068 101.818H380.068ZM386.99 70.3769C391.597 61.7843 397.834 55.2906 405.702 50.8308L403.73 47.351C395.158 52.2094 388.403 59.2763 383.465 68.4868L386.99 70.3769ZM405.708 50.8274C413.598 46.3188 422.531 44.0455 432.557 44.0455V40.0455C421.901 40.0455 412.273 42.4691 403.724 47.3544L405.708 50.8274ZM432.557 44.0455C442.504 44.0455 451.4 46.3175 459.292 50.8274L461.276 47.3544C452.729 42.4704 443.14 40.0455 432.557 40.0455V44.0455ZM459.301 50.8328C467.207 55.2932 473.461 61.7867 478.067 70.3769L481.592 68.4868C476.653 59.2739 469.877 52.2068 461.267 47.349L459.301 50.8328ZM478.07 70.3827C482.688 78.927 485.045 89.378 485.045 101.818H489.045C489.045 88.8796 486.593 77.7396 481.589 68.4809L478.07 70.3827ZM464.102 101.818C464.102 93.4106 462.845 86.1885 460.242 80.223L456.576 81.8224C458.898 87.1448 460.102 93.7864 460.102 101.818H464.102ZM460.247 80.2334C457.693 74.2879 454.032 69.6754 449.224 66.5112L447.026 69.8525C451.081 72.5216 454.277 76.4696 456.571 81.8121L460.247 80.2334ZM449.224 66.5112C444.428 63.3543 438.846 61.8068 432.557 61.8068V65.8068C438.162 65.8068 442.959 67.176 447.026 69.8525L449.224 66.5112ZM432.557 61.8068C426.268 61.8068 420.686 63.3543 415.889 66.5112L418.088 69.8525C422.155 67.176 426.952 65.8068 432.557 65.8068V61.8068ZM415.889 66.5112C411.084 69.6734 407.406 74.2822 404.815 80.223L408.481 81.8224C410.813 76.4754 414.029 72.5236 418.088 69.8525L415.889 66.5112ZM404.81 80.2334C402.249 86.1957 401.011 93.4139 401.011 101.818H405.011C405.011 93.7831 406.198 87.1376 408.485 81.8121L404.81 80.2334ZM401.011 101.818C401.011 110.222 402.249 117.441 404.81 123.403L408.485 121.824C406.198 116.499 405.011 109.853 405.011 101.818H401.011ZM404.815 123.413C407.406 129.354 411.084 133.963 415.889 137.125L418.088 133.784C414.029 131.113 410.813 127.161 408.481 121.814L404.815 123.413ZM415.889 137.125C420.686 140.282 426.268 141.83 432.557 141.83V137.83C426.952 137.83 422.155 136.46 418.088 133.784L415.889 137.125ZM432.557 141.83C438.846 141.83 444.428 140.282 449.224 137.125L447.026 133.784C442.959 136.46 438.162 137.83 432.557 137.83V141.83ZM449.224 137.125C454.032 133.961 457.693 129.348 460.247 123.403L456.571 121.824C454.277 127.167 451.081 131.115 447.026 133.784L449.224 137.125ZM460.242 123.413C462.845 117.448 464.102 110.226 464.102 101.818H460.102C460.102 109.85 458.898 116.492 456.576 121.814L460.242 123.413ZM529.872 43.6364H531.872V41.6364H529.872V43.6364ZM529.872 160V162H531.872V160H529.872ZM505.27 160H503.27V162H505.27V160ZM505.27 43.6364V41.6364H503.27V43.6364H505.27ZM527.872 43.6364V160H531.872V43.6364H527.872ZM529.872 158H505.27V162H529.872V158ZM507.27 160V43.6364H503.27V160H507.27ZM505.27 45.6364H529.872V41.6364H505.27V45.6364ZM550.114 160H548.114V162H550.114V160ZM550.114 43.6364V41.6364H548.114V43.6364H550.114ZM574.716 43.6364H576.716V41.6364H574.716V43.6364ZM574.716 139.716H572.716V141.716H574.716V139.716ZM624.602 139.716H626.602V137.716H624.602V139.716ZM624.602 160V162H626.602V160H624.602ZM552.114 160V43.6364H548.114V160H552.114ZM550.114 45.6364H574.716V41.6364H550.114V45.6364ZM572.716 43.6364V139.716H576.716V43.6364H572.716ZM574.716 141.716H624.602V137.716H574.716V141.716ZM622.602 139.716V160H626.602V139.716H622.602ZM624.602 158H550.114V162H624.602V158ZM640.895 160H638.895V162H640.895V160ZM640.895 43.6364V41.6364H638.895V43.6364H640.895ZM719.304 43.6364H721.304V41.6364H719.304V43.6364ZM719.304 63.9205V65.9205H721.304V63.9205H719.304ZM665.497 63.9205V61.9205H663.497V63.9205H665.497ZM665.497 91.6477H663.497V93.6477H665.497V91.6477ZM715.27 91.6477H717.27V89.6477H715.27V91.6477ZM715.27 111.932V113.932H717.27V111.932H715.27ZM665.497 111.932V109.932H663.497V111.932H665.497ZM665.497 139.716H663.497V141.716H665.497V139.716ZM719.531 139.716H721.531V137.716H719.531V139.716ZM719.531 160V162H721.531V160H719.531ZM642.895 160V43.6364H638.895V160H642.895ZM640.895 45.6364H719.304V41.6364H640.895V45.6364ZM717.304 43.6364V63.9205H721.304V43.6364H717.304ZM719.304 61.9205H665.497V65.9205H719.304V61.9205ZM663.497 63.9205V91.6477H667.497V63.9205H663.497ZM665.497 93.6477H715.27V89.6477H665.497V93.6477ZM713.27 91.6477V111.932H717.27V91.6477H713.27ZM715.27 109.932H665.497V113.932H715.27V109.932ZM663.497 111.932V139.716H667.497V111.932H663.497ZM665.497 141.716H719.531V137.716H665.497V141.716ZM717.531 139.716V160H721.531V139.716H717.531ZM719.531 158H640.895V162H719.531V158ZM738.864 160H736.864V162H738.864V160ZM738.864 43.6364V41.6364H736.864V43.6364H738.864ZM807.273 48.3523L806.37 50.1368L806.376 50.14L806.383 50.1433L807.273 48.3523ZM821.534 61.5909L819.796 62.5807L819.8 62.5875L819.804 62.5943L821.534 61.5909ZM821.477 101.591L823.19 102.623L823.193 102.618L821.477 101.591ZM806.989 114.318L806.142 112.506L806.138 112.508L806.989 114.318ZM753.409 118.75H751.409V120.75H753.409V118.75ZM753.409 98.9773V96.9773H751.409V98.9773H753.409ZM791.875 97.0455L792.641 98.8929L792.641 98.8929L791.875 97.0455ZM798.807 91.25L797.094 90.2173L797.088 90.2266L797.083 90.236L798.807 91.25ZM798.807 71.875L797.07 72.8673L797.076 72.8766L797.081 72.8858L798.807 71.875ZM791.818 65.8523L790.996 67.6753L791.009 67.6813L791.022 67.6871L791.818 65.8523ZM763.466 63.75V61.75H761.466V63.75H763.466ZM763.466 160V162H765.466V160H763.466ZM801.705 107.045L803.46 106.087L802.891 105.045H801.705V107.045ZM830.625 160V162H833.996L832.38 159.041L830.625 160ZM803.466 160L801.702 160.943L802.267 162H803.466V160ZM775.17 107.045V105.045H771.834L773.406 107.988L775.17 107.045ZM740.864 160V43.6364H736.864V160H740.864ZM738.864 45.6364H784.773V41.6364H738.864V45.6364ZM784.773 45.6364C793.327 45.6364 800.501 47.1667 806.37 50.1368L808.176 46.5678C801.62 43.2499 793.794 41.6364 784.773 41.6364V45.6364ZM806.383 50.1433C812.299 53.0837 816.747 57.2277 819.796 62.5807L823.272 60.6011C819.806 54.5147 814.746 49.833 808.163 46.5613L806.383 50.1433ZM819.804 62.5943C822.895 67.9228 824.477 74.2501 824.477 81.6477H828.477C828.477 73.6666 826.765 66.6227 823.264 60.5875L819.804 62.5943ZM824.477 81.6477C824.477 89.0826 822.876 95.3605 819.761 100.564L823.193 102.618C826.745 96.6849 828.477 89.6673 828.477 81.6477H824.477ZM819.764 100.558C816.653 105.721 812.139 109.705 806.142 112.506L807.835 116.13C814.49 113.022 819.635 108.522 823.19 102.623L819.764 100.558ZM806.138 112.508C800.181 115.307 792.874 116.75 784.148 116.75V120.75C793.3 120.75 801.22 119.238 807.839 116.128L806.138 112.508ZM784.148 116.75H753.409V120.75H784.148V116.75ZM755.409 118.75V98.9773H751.409V118.75H755.409ZM753.409 100.977H780.17V96.9773H753.409V100.977ZM780.17 100.977C785.033 100.977 789.216 100.313 792.641 98.8929L791.109 95.198C788.322 96.3537 784.702 96.9773 780.17 96.9773V100.977ZM792.641 98.8929C796.096 97.4605 798.768 95.2607 800.531 92.264L797.083 90.236C795.815 92.3909 793.866 94.0546 791.109 95.198L792.641 98.8929ZM800.52 92.2827C802.305 89.3211 803.136 85.7398 803.136 81.6477H799.136C799.136 85.2071 798.414 88.0274 797.094 90.2173L800.52 92.2827ZM803.136 81.6477C803.136 77.5191 802.306 73.8918 800.533 70.8642L797.081 72.8858C798.414 75.1612 799.136 78.0491 799.136 81.6477H803.136ZM800.543 70.8827C798.788 67.8108 796.103 65.5309 792.614 64.0174L791.022 67.6871C793.821 68.9009 795.795 70.6362 797.07 72.8673L800.543 70.8827ZM792.641 64.0293C789.196 62.475 784.972 61.75 780.057 61.75V65.75C784.611 65.75 788.228 66.4265 790.996 67.6753L792.641 64.0293ZM780.057 61.75H763.466V65.75H780.057V61.75ZM761.466 63.75V160H765.466V63.75H761.466ZM763.466 158H738.864V162H763.466V158ZM799.949 108.004L828.87 160.959L832.38 159.041L803.46 106.087L799.949 108.004ZM830.625 158H803.466V162H830.625V158ZM805.23 159.057L776.934 106.103L773.406 107.988L801.702 160.943L805.23 159.057ZM775.17 109.045H801.705V105.045H775.17V109.045ZM117.784 278.375V280.375H120.034L119.77 278.141L117.784 278.375ZM92.8977 278.375L90.9174 278.655L91.1603 280.375H92.8977V278.375ZM90.1136 269.795L88.3628 270.762L88.3691 270.773L90.1136 269.795ZM84.7159 263.318L83.4567 264.872L83.4567 264.872L84.7159 263.318ZM77.1023 259.227L76.4698 261.125L76.4773 261.127L77.1023 259.227ZM52.1023 262.295L53.2052 263.964L53.2149 263.957L52.1023 262.295ZM41.7045 275.25L43.5377 276.05L43.5397 276.045L41.7045 275.25ZM41.7045 316.727L39.8714 317.527L39.8759 317.537L41.7045 316.727ZM52.1591 329.511L51.0761 331.193L51.0761 331.193L52.1591 329.511ZM76.8182 332.523L76.2318 330.611L76.2246 330.613L76.8182 332.523ZM84.375 328.716L85.5838 330.309L85.5924 330.303L85.601 330.296L84.375 328.716ZM89.8295 322.523L88.1217 321.482L88.1157 321.492L88.1098 321.502L89.8295 322.523ZM92.8977 314.227L92.9069 312.227L91.2318 312.22L90.9304 313.867L92.8977 314.227ZM117.784 314.341L119.77 314.58L120.038 312.351L117.793 312.341L117.784 314.341ZM112.955 329.795L111.179 328.874L111.177 328.879L112.955 329.795ZM102.67 343.034L104.011 344.519L104.011 344.518L102.67 343.034ZM87.3295 352.239L88.0371 354.109L88.0435 354.107L87.3295 352.239ZM39.4318 348.545L38.4326 350.278L38.4361 350.28L39.4318 348.545ZM20.1136 328.148L18.3448 329.081L18.3479 329.087L20.1136 328.148ZM20.2273 263.432L21.9899 264.377L21.9899 264.377L20.2273 263.432ZM39.6591 243.091L40.6488 244.829L40.6548 244.825L39.6591 243.091ZM86.0227 238.886L85.3978 240.786L85.4015 240.787L86.0227 238.886ZM101.42 247.182L100.158 248.733L100.166 248.74L101.42 247.182ZM112.33 260.42L110.567 261.366L110.572 261.375L112.33 260.42ZM117.784 276.375H92.8977V280.375H117.784V276.375ZM94.8781 278.095C94.3935 274.663 93.3961 271.561 91.8582 268.817L88.3691 270.773C89.6342 273.03 90.4928 275.648 90.9174 278.655L94.8781 278.095ZM91.8644 268.829C90.3416 266.071 88.3773 263.711 85.9751 261.764L83.4567 264.872C85.4485 266.486 87.0827 268.444 88.3629 270.762L91.8644 268.829ZM85.9751 261.764C83.5763 259.82 80.82 258.345 77.7272 257.327L76.4773 261.127C79.1421 262.004 81.4616 263.255 83.4567 264.872L85.9751 261.764ZM77.7347 257.33C74.6682 256.308 71.3651 255.807 67.8409 255.807V259.807C70.9834 259.807 73.8545 260.253 76.4698 261.125L77.7347 257.33ZM67.8409 255.807C61.4712 255.807 55.8271 257.395 50.9896 260.634L53.2149 263.957C57.3168 261.211 62.1652 259.807 67.8409 259.807V255.807ZM50.9994 260.627C46.1581 263.827 42.4612 268.474 39.8694 274.455L43.5397 276.045C45.8721 270.663 49.1071 266.673 53.2051 263.964L50.9994 260.627ZM39.8714 274.45C37.2708 280.412 36.0114 287.556 36.0114 295.818H40.0114C40.0114 287.944 41.2141 281.376 43.5377 276.05L39.8714 274.45ZM36.0114 295.818C36.0114 304.299 37.2681 311.559 39.8714 317.527L43.5377 315.928C41.2167 310.607 40.0114 303.929 40.0114 295.818H36.0114ZM39.8759 317.537C42.508 323.479 46.2279 328.07 51.0761 331.193L53.242 327.83C49.1509 325.195 45.9011 321.263 43.5332 315.917L39.8759 317.537ZM51.0761 331.193C55.902 334.301 61.4567 335.83 67.6705 335.83V331.83C62.1418 331.83 57.3556 330.479 53.242 327.83L51.0761 331.193ZM67.6705 335.83C71.1428 335.83 74.3946 335.37 77.4118 334.433L76.2246 330.613C73.6357 331.418 70.789 331.83 67.6705 331.83V335.83ZM77.4046 334.435C80.4526 333.5 83.1856 332.129 85.5838 330.309L83.1662 327.123C81.1704 328.637 78.8656 329.803 76.2318 330.611L77.4046 334.435ZM85.601 330.296C87.9989 328.436 89.9836 326.181 91.5493 323.544L88.1098 321.502C86.7967 323.713 85.145 325.587 83.149 327.136L85.601 330.296ZM91.5374 323.563C93.1557 320.908 94.2578 317.907 94.8651 314.587L90.9304 313.867C90.4013 316.759 89.458 319.289 88.1217 321.482L91.5374 323.563ZM92.8886 316.227L117.775 316.341L117.793 312.341L92.9069 312.227L92.8886 316.227ZM115.798 314.102C115.184 319.195 113.649 324.116 111.179 328.874L114.73 330.717C117.412 325.55 119.096 320.169 119.77 314.58L115.798 314.102ZM111.177 328.879C108.755 333.579 105.478 337.802 101.33 341.55L104.011 344.518C108.499 340.463 112.079 335.861 114.732 330.712L111.177 328.879ZM101.33 341.549C97.2514 345.231 92.3559 348.177 86.6156 350.37L88.0435 354.107C94.1971 351.755 99.5289 348.564 104.011 344.519L101.33 341.549ZM86.622 350.368C80.9759 352.503 74.536 353.591 67.2727 353.591V357.591C74.9337 357.591 81.865 356.444 88.0371 354.109L86.622 350.368ZM67.2727 353.591C57.2074 353.591 48.2767 351.317 40.4276 346.811L38.4361 350.28C46.9506 355.168 56.5805 357.591 67.2727 357.591V353.591ZM40.431 346.813C32.6356 342.317 26.4514 335.804 21.8794 327.209L18.3479 329.087C23.2455 338.295 29.9402 345.38 38.4326 350.278L40.431 346.813ZM21.8825 327.214C17.3714 318.665 15.0682 308.226 15.0682 295.818H11.0682C11.0682 308.713 13.4619 319.827 18.3448 329.081L21.8825 327.214ZM15.0682 295.818C15.0682 283.376 17.408 272.923 21.9899 264.377L18.4646 262.487C13.5011 271.744 11.0682 282.882 11.0682 295.818H15.0682ZM21.9899 264.377C26.5982 255.782 32.818 249.288 40.6488 244.829L38.6694 241.353C30.1365 246.212 23.4018 253.279 18.4646 262.487L21.9899 264.377ZM40.6548 244.825C48.5084 240.317 57.3646 238.045 67.2727 238.045V234.045C56.7263 234.045 47.1734 236.471 38.6634 241.356L40.6548 244.825ZM67.2727 238.045C73.8265 238.045 79.8632 238.966 85.3978 240.786L86.6477 236.987C80.6671 235.019 74.2038 234.045 67.2727 234.045V238.045ZM85.4015 240.787C90.9774 242.61 95.8898 245.261 100.158 248.733L102.683 245.63C98.0117 241.83 92.659 238.951 86.644 236.985L85.4015 240.787ZM100.166 248.74C104.42 252.164 107.886 256.366 110.567 261.366L114.092 259.475C111.167 254.02 107.36 249.396 102.675 245.624L100.166 248.74ZM110.572 261.375C113.276 266.35 115.028 272.084 115.798 278.609L119.77 278.141C118.949 271.181 117.065 264.945 114.087 259.465L110.572 261.375ZM235.142 328.205L233.383 327.254L233.379 327.259L235.142 328.205ZM215.597 348.602L216.583 350.342L216.585 350.341L215.597 348.602ZM160.028 348.545L161.021 346.809L161.021 346.809L160.028 348.545ZM140.54 328.148L138.777 329.093L138.777 329.093L140.54 328.148ZM140.54 263.432L142.302 264.377L142.302 264.377L140.54 263.432ZM160.028 243.091L161.015 244.831L161.021 244.827L160.028 243.091ZM215.597 243.091L214.604 244.827L214.614 244.833L215.597 243.091ZM235.142 263.432L233.379 264.377L233.383 264.383L235.142 263.432ZM213.722 275.023L211.884 275.812L211.888 275.822L213.722 275.023ZM203.438 262.182L202.338 263.852L202.338 263.852L203.438 262.182ZM172.301 262.182L173.401 263.852L173.401 263.852L172.301 262.182ZM161.96 275.023L160.127 274.223L160.123 274.233L161.96 275.023ZM161.96 316.614L160.123 317.403L160.127 317.413L161.96 316.614ZM172.301 329.455L173.401 327.784L173.401 327.784L172.301 329.455ZM203.438 329.455L202.338 327.784L202.338 327.784L203.438 329.455ZM213.722 316.614L211.888 315.814L211.884 315.824L213.722 316.614ZM240.358 295.818C240.358 308.258 238 318.709 233.383 327.254L236.902 329.155C241.905 319.897 244.358 308.757 244.358 295.818H240.358ZM233.379 327.259C228.773 335.851 222.517 342.365 214.608 346.864L216.585 350.341C225.192 345.446 231.966 338.361 236.905 329.15L233.379 327.259ZM214.61 346.862C206.717 351.336 197.82 353.591 187.869 353.591V357.591C198.449 357.591 208.037 355.186 216.583 350.342L214.61 346.862ZM187.869 353.591C177.843 353.591 168.911 351.318 161.021 346.809L159.036 350.282C167.585 355.167 177.213 357.591 187.869 357.591V353.591ZM161.021 346.809C153.149 342.311 146.91 335.796 142.302 327.203L138.777 329.093C143.715 338.302 150.468 345.386 159.036 350.282L161.021 346.809ZM142.302 327.203C137.72 318.656 135.381 308.222 135.381 295.818H131.381C131.381 308.718 133.814 319.836 138.777 329.093L142.302 327.203ZM135.381 295.818C135.381 283.376 137.72 272.923 142.302 264.377L138.777 262.487C133.814 271.744 131.381 282.882 131.381 295.818H135.381ZM142.302 264.377C146.909 255.784 153.147 249.291 161.015 244.831L159.042 241.351C150.471 246.209 143.716 253.276 138.777 262.487L142.302 264.377ZM161.021 244.827C168.911 240.319 177.843 238.045 187.869 238.045V234.045C177.213 234.045 167.585 236.469 159.036 241.354L161.021 244.827ZM187.869 238.045C197.817 238.045 206.712 240.318 214.604 244.827L216.589 241.354C208.042 236.47 198.452 234.045 187.869 234.045V238.045ZM214.614 244.833C222.519 249.293 228.774 255.787 233.379 264.377L236.905 262.487C231.965 253.274 225.189 246.207 216.579 241.349L214.614 244.833ZM233.383 264.383C238 272.927 240.358 283.378 240.358 295.818H244.358C244.358 282.88 241.905 271.74 236.902 262.481L233.383 264.383ZM219.415 295.818C219.415 287.411 218.157 280.189 215.555 274.223L211.888 275.822C214.21 281.145 215.415 287.786 215.415 295.818H219.415ZM215.559 274.233C213.005 268.288 209.345 263.675 204.537 260.511L202.338 263.852C206.394 266.522 209.589 270.47 211.884 275.812L215.559 274.233ZM204.537 260.511C199.74 257.354 194.158 255.807 187.869 255.807V259.807C193.474 259.807 198.271 261.176 202.338 263.852L204.537 260.511ZM187.869 255.807C181.58 255.807 175.998 257.354 171.202 260.511L173.401 263.852C177.467 261.176 182.264 259.807 187.869 259.807V255.807ZM171.202 260.511C166.397 263.673 162.719 268.282 160.127 274.223L163.793 275.822C166.126 270.475 169.342 266.524 173.401 263.852L171.202 260.511ZM160.123 274.233C157.562 280.196 156.324 287.414 156.324 295.818H160.324C160.324 287.783 161.51 281.138 163.798 275.812L160.123 274.233ZM156.324 295.818C156.324 304.222 157.562 311.441 160.123 317.403L163.798 315.824C161.51 310.499 160.324 303.853 160.324 295.818H156.324ZM160.127 317.413C162.719 323.354 166.397 327.963 171.202 331.125L173.401 327.784C169.342 325.113 166.126 321.161 163.793 315.814L160.127 317.413ZM171.202 331.125C175.998 334.282 181.58 335.83 187.869 335.83V331.83C182.264 331.83 177.467 330.46 173.401 327.784L171.202 331.125ZM187.869 335.83C194.158 335.83 199.74 334.282 204.537 331.125L202.338 327.784C198.271 330.46 193.474 331.83 187.869 331.83V335.83ZM204.537 331.125C209.345 327.961 213.005 323.348 215.559 317.403L211.884 315.824C209.589 321.167 206.394 325.115 202.338 327.784L204.537 331.125ZM215.555 317.413C218.157 311.448 219.415 304.226 219.415 295.818H215.415C215.415 303.85 214.21 310.492 211.888 315.814L215.555 317.413ZM357.912 237.636H359.912V235.636H357.912V237.636ZM357.912 354V356H359.912V354H357.912ZM336.662 354L335.017 355.137L335.613 356H336.662V354ZM286.037 280.761L287.682 279.624L287.086 278.761H286.037V280.761ZM285.185 280.761V278.761H283.185V280.761H285.185ZM285.185 354V356H287.185V354H285.185ZM260.582 354H258.582V356H260.582V354ZM260.582 237.636V235.636H258.582V237.636H260.582ZM282.173 237.636L283.822 236.505L283.226 235.636H282.173V237.636ZM332.401 310.818L330.752 311.95L331.347 312.818H332.401V310.818ZM333.423 310.818V312.818H335.423V310.818H333.423ZM333.423 237.636V235.636H331.423V237.636H333.423ZM355.912 237.636V354H359.912V237.636H355.912ZM357.912 352H336.662V356H357.912V352ZM338.307 352.863L287.682 279.624L284.392 281.899L335.017 355.137L338.307 352.863ZM286.037 278.761H285.185V282.761H286.037V278.761ZM283.185 280.761V354H287.185V280.761H283.185ZM285.185 352H260.582V356H285.185V352ZM262.582 354V237.636H258.582V354H262.582ZM260.582 239.636H282.173V235.636H260.582V239.636ZM280.524 238.768L330.752 311.95L334.05 309.686L283.822 236.505L280.524 238.768ZM332.401 312.818H333.423V308.818H332.401V312.818ZM335.423 310.818V237.636H331.423V310.818H335.423ZM333.423 239.636H357.912V235.636H333.423V239.636ZM373.807 257.92H371.807V259.92H373.807V257.92ZM373.807 237.636V235.636H371.807V237.636H373.807ZM469.375 237.636H471.375V235.636H469.375V237.636ZM469.375 257.92V259.92H471.375V257.92H469.375ZM433.75 257.92V255.92H431.75V257.92H433.75ZM433.75 354V356H435.75V354H433.75ZM409.432 354H407.432V356H409.432V354ZM409.432 257.92H411.432V255.92H409.432V257.92ZM375.807 257.92V237.636H371.807V257.92H375.807ZM373.807 239.636H469.375V235.636H373.807V239.636ZM467.375 237.636V257.92H471.375V237.636H467.375ZM469.375 255.92H433.75V259.92H469.375V255.92ZM431.75 257.92V354H435.75V257.92H431.75ZM433.75 352H409.432V356H433.75V352ZM411.432 354V257.92H407.432V354H411.432ZM409.432 255.92H373.807V259.92H409.432V255.92ZM485.114 354H483.114V356H485.114V354ZM485.114 237.636V235.636H483.114V237.636H485.114ZM553.523 242.352L552.62 244.137L552.626 244.14L552.633 244.143L553.523 242.352ZM567.784 255.591L566.046 256.581L566.05 256.588L566.054 256.594L567.784 255.591ZM567.727 295.591L569.44 296.623L569.443 296.618L567.727 295.591ZM553.239 308.318L552.392 306.506L552.388 306.508L553.239 308.318ZM499.659 312.75H497.659V314.75H499.659V312.75ZM499.659 292.977V290.977H497.659V292.977H499.659ZM538.125 291.045L538.891 292.893L538.891 292.893L538.125 291.045ZM545.057 285.25L543.344 284.217L543.338 284.227L543.333 284.236L545.057 285.25ZM545.057 265.875L543.32 266.867L543.326 266.877L543.331 266.886L545.057 265.875ZM538.068 259.852L537.246 261.675L537.259 261.681L537.272 261.687L538.068 259.852ZM509.716 257.75V255.75H507.716V257.75H509.716ZM509.716 354V356H511.716V354H509.716ZM547.955 301.045L549.71 300.087L549.141 299.045H547.955V301.045ZM576.875 354V356H580.246L578.63 353.041L576.875 354ZM549.716 354L547.952 354.943L548.517 356H549.716V354ZM521.42 301.045V299.045H518.084L519.656 301.988L521.42 301.045ZM487.114 354V237.636H483.114V354H487.114ZM485.114 239.636H531.023V235.636H485.114V239.636ZM531.023 239.636C539.577 239.636 546.751 241.167 552.62 244.137L554.426 240.568C547.87 237.25 540.044 235.636 531.023 235.636V239.636ZM552.633 244.143C558.549 247.084 562.997 251.228 566.046 256.581L569.522 254.601C566.056 248.515 560.996 243.833 554.413 240.561L552.633 244.143ZM566.054 256.594C569.145 261.923 570.727 268.25 570.727 275.648H574.727C574.727 267.667 573.015 260.623 569.514 254.587L566.054 256.594ZM570.727 275.648C570.727 283.083 569.126 289.361 566.011 294.564L569.443 296.618C572.995 290.685 574.727 283.667 574.727 275.648H570.727ZM566.014 294.558C562.903 299.721 558.389 303.705 552.392 306.506L554.085 310.13C560.74 307.022 565.885 302.522 569.44 296.623L566.014 294.558ZM552.388 306.508C546.431 309.307 539.124 310.75 530.398 310.75V314.75C539.55 314.75 547.47 313.238 554.089 310.128L552.388 306.508ZM530.398 310.75H499.659V314.75H530.398V310.75ZM501.659 312.75V292.977H497.659V312.75H501.659ZM499.659 294.977H526.42V290.977H499.659V294.977ZM526.42 294.977C531.283 294.977 535.466 294.313 538.891 292.893L537.359 289.198C534.572 290.354 530.952 290.977 526.42 290.977V294.977ZM538.891 292.893C542.346 291.461 545.018 289.261 546.781 286.264L543.333 284.236C542.065 286.391 540.116 288.055 537.359 289.198L538.891 292.893ZM546.77 286.283C548.555 283.321 549.386 279.74 549.386 275.648H545.386C545.386 279.207 544.664 282.027 543.344 284.217L546.77 286.283ZM549.386 275.648C549.386 271.519 548.556 267.892 546.783 264.864L543.331 266.886C544.664 269.161 545.386 272.049 545.386 275.648H549.386ZM546.793 264.883C545.038 261.811 542.353 259.531 538.864 258.017L537.272 261.687C540.071 262.901 542.045 264.636 543.32 266.867L546.793 264.883ZM538.891 258.029C535.446 256.475 531.222 255.75 526.307 255.75V259.75C530.861 259.75 534.478 260.427 537.246 261.675L538.891 258.029ZM526.307 255.75H509.716V259.75H526.307V255.75ZM507.716 257.75V354H511.716V257.75H507.716ZM509.716 352H485.114V356H509.716V352ZM546.199 302.004L575.12 354.959L578.63 353.041L549.71 300.087L546.199 302.004ZM576.875 352H549.716V356H576.875V352ZM551.48 353.057L523.184 300.103L519.656 301.988L547.952 354.943L551.48 353.057ZM521.42 303.045H547.955V299.045H521.42V303.045ZM689.83 328.205L688.07 327.254L688.067 327.259L689.83 328.205ZM670.284 348.602L671.27 350.342L671.273 350.341L670.284 348.602ZM614.716 348.545L615.708 346.809L615.708 346.809L614.716 348.545ZM595.227 328.148L593.465 329.093L593.465 329.093L595.227 328.148ZM595.227 263.432L596.99 264.377L596.99 264.377L595.227 263.432ZM614.716 243.091L615.702 244.831L615.708 244.827L614.716 243.091ZM670.284 243.091L669.292 244.827L669.301 244.833L670.284 243.091ZM689.83 263.432L688.067 264.377L688.07 264.383L689.83 263.432ZM668.409 275.023L666.571 275.812L666.576 275.822L668.409 275.023ZM658.125 262.182L657.026 263.852L657.026 263.852L658.125 262.182ZM626.989 262.182L628.088 263.852L628.088 263.852L626.989 262.182ZM616.648 275.023L614.815 274.223L614.81 274.233L616.648 275.023ZM616.648 316.614L614.81 317.403L614.815 317.413L616.648 316.614ZM626.989 329.455L628.088 327.784L628.088 327.784L626.989 329.455ZM658.125 329.455L657.026 327.784L657.026 327.784L658.125 329.455ZM668.409 316.614L666.576 315.814L666.571 315.824L668.409 316.614ZM695.045 295.818C695.045 308.258 692.688 318.709 688.07 327.254L691.589 329.155C696.593 319.897 699.045 308.757 699.045 295.818H695.045ZM688.067 327.259C683.46 335.851 677.204 342.365 669.295 346.864L671.273 350.341C679.879 345.446 686.653 338.361 691.592 329.15L688.067 327.259ZM669.298 346.862C661.405 351.336 652.507 353.591 642.557 353.591V357.591C653.137 357.591 662.724 355.186 671.27 350.342L669.298 346.862ZM642.557 353.591C632.531 353.591 623.598 351.318 615.708 346.809L613.724 350.282C622.273 355.167 631.901 357.591 642.557 357.591V353.591ZM615.708 346.809C607.836 342.311 601.598 335.796 596.99 327.203L593.465 329.093C598.402 338.302 605.156 345.386 613.724 350.282L615.708 346.809ZM596.99 327.203C592.408 318.656 590.068 308.222 590.068 295.818H586.068C586.068 308.718 588.502 319.836 593.465 329.093L596.99 327.203ZM590.068 295.818C590.068 283.376 592.408 272.923 596.99 264.377L593.465 262.487C588.501 271.744 586.068 282.882 586.068 295.818H590.068ZM596.99 264.377C601.597 255.784 607.834 249.291 615.702 244.831L613.73 241.351C605.158 246.209 598.403 253.276 593.465 262.487L596.99 264.377ZM615.708 244.827C623.598 240.319 632.531 238.045 642.557 238.045V234.045C631.901 234.045 622.273 236.469 613.724 241.354L615.708 244.827ZM642.557 238.045C652.504 238.045 661.4 240.318 669.292 244.827L671.276 241.354C662.729 236.47 653.14 234.045 642.557 234.045V238.045ZM669.301 244.833C677.207 249.293 683.461 255.787 688.067 264.377L691.592 262.487C686.653 253.274 679.877 246.207 671.267 241.349L669.301 244.833ZM688.07 264.383C692.688 272.927 695.045 283.378 695.045 295.818H699.045C699.045 282.88 696.593 271.74 691.589 262.481L688.07 264.383ZM674.102 295.818C674.102 287.411 672.845 280.189 670.242 274.223L666.576 275.822C668.898 281.145 670.102 287.786 670.102 295.818H674.102ZM670.247 274.233C667.693 268.288 664.032 263.675 659.224 260.511L657.026 263.852C661.081 266.522 664.277 270.47 666.571 275.812L670.247 274.233ZM659.224 260.511C654.428 257.354 648.846 255.807 642.557 255.807V259.807C648.162 259.807 652.959 261.176 657.026 263.852L659.224 260.511ZM642.557 255.807C636.268 255.807 630.686 257.354 625.889 260.511L628.088 263.852C632.155 261.176 636.952 259.807 642.557 259.807V255.807ZM625.889 260.511C621.084 263.673 617.406 268.282 614.815 274.223L618.481 275.822C620.813 270.475 624.029 266.524 628.088 263.852L625.889 260.511ZM614.81 274.233C612.249 280.196 611.011 287.414 611.011 295.818H615.011C615.011 287.783 616.198 281.138 618.485 275.812L614.81 274.233ZM611.011 295.818C611.011 304.222 612.249 311.441 614.81 317.403L618.485 315.824C616.198 310.499 615.011 303.853 615.011 295.818H611.011ZM614.815 317.413C617.406 323.354 621.084 327.963 625.889 331.125L628.088 327.784C624.029 325.113 620.813 321.161 618.481 315.814L614.815 317.413ZM625.889 331.125C630.686 334.282 636.268 335.83 642.557 335.83V331.83C636.952 331.83 632.155 330.46 628.088 327.784L625.889 331.125ZM642.557 335.83C648.846 335.83 654.428 334.282 659.224 331.125L657.026 327.784C652.959 330.46 648.162 331.83 642.557 331.83V335.83ZM659.224 331.125C664.032 327.961 667.693 323.348 670.247 317.403L666.571 315.824C664.277 321.167 661.081 325.115 657.026 327.784L659.224 331.125ZM670.242 317.413C672.845 311.448 674.102 304.226 674.102 295.818H670.102C670.102 303.85 668.898 310.492 666.576 315.814L670.242 317.413ZM715.27 354H713.27V356H715.27V354ZM715.27 237.636V235.636H713.27V237.636H715.27ZM739.872 237.636H741.872V235.636H739.872V237.636ZM739.872 333.716H737.872V335.716H739.872V333.716ZM789.759 333.716H791.759V331.716H789.759V333.716ZM789.759 354V356H791.759V354H789.759ZM717.27 354V237.636H713.27V354H717.27ZM715.27 239.636H739.872V235.636H715.27V239.636ZM737.872 237.636V333.716H741.872V237.636H737.872ZM739.872 335.716H789.759V331.716H739.872V335.716ZM787.759 333.716V354H791.759V333.716H787.759ZM789.759 352H715.27V356H789.759V352ZM806.051 354H804.051V356H806.051V354ZM806.051 237.636V235.636H804.051V237.636H806.051ZM830.653 237.636H832.653V235.636H830.653V237.636ZM830.653 333.716H828.653V335.716H830.653V333.716ZM880.54 333.716H882.54V331.716H880.54V333.716ZM880.54 354V356H882.54V354H880.54ZM808.051 354V237.636H804.051V354H808.051ZM806.051 239.636H830.653V235.636H806.051V239.636ZM828.653 237.636V333.716H832.653V237.636H828.653ZM830.653 335.716H880.54V331.716H830.653V335.716ZM878.54 333.716V354H882.54V333.716H878.54ZM880.54 352H806.051V356H880.54V352ZM896.832 354H894.832V356H896.832V354ZM896.832 237.636V235.636H894.832V237.636H896.832ZM975.241 237.636H977.241V235.636H975.241V237.636ZM975.241 257.92V259.92H977.241V257.92H975.241ZM921.435 257.92V255.92H919.435V257.92H921.435ZM921.435 285.648H919.435V287.648H921.435V285.648ZM971.207 285.648H973.207V283.648H971.207V285.648ZM971.207 305.932V307.932H973.207V305.932H971.207ZM921.435 305.932V303.932H919.435V305.932H921.435ZM921.435 333.716H919.435V335.716H921.435V333.716ZM975.469 333.716H977.469V331.716H975.469V333.716ZM975.469 354V356H977.469V354H975.469ZM898.832 354V237.636H894.832V354H898.832ZM896.832 239.636H975.241V235.636H896.832V239.636ZM973.241 237.636V257.92H977.241V237.636H973.241ZM975.241 255.92H921.435V259.92H975.241V255.92ZM919.435 257.92V285.648H923.435V257.92H919.435ZM921.435 287.648H971.207V283.648H921.435V287.648ZM969.207 285.648V305.932H973.207V285.648H969.207ZM971.207 303.932H921.435V307.932H971.207V303.932ZM919.435 305.932V333.716H923.435V305.932H919.435ZM921.435 335.716H975.469V331.716H921.435V335.716ZM973.469 333.716V354H977.469V333.716H973.469ZM975.469 352H896.832V356H975.469V352ZM994.801 354H992.801V356H994.801V354ZM994.801 237.636V235.636H992.801V237.636H994.801ZM1063.21 242.352L1062.31 244.137L1062.31 244.14L1062.32 244.143L1063.21 242.352ZM1077.47 255.591L1075.73 256.581L1075.74 256.588L1075.74 256.594L1077.47 255.591ZM1077.41 295.591L1079.13 296.623L1079.13 296.618L1077.41 295.591ZM1062.93 308.318L1062.08 306.506L1062.08 306.508L1062.93 308.318ZM1009.35 312.75H1007.35V314.75H1009.35V312.75ZM1009.35 292.977V290.977H1007.35V292.977H1009.35ZM1047.81 291.045L1048.58 292.893L1048.58 292.893L1047.81 291.045ZM1054.74 285.25L1053.03 284.217L1053.03 284.227L1053.02 284.236L1054.74 285.25ZM1054.74 265.875L1053.01 266.867L1053.01 266.877L1053.02 266.886L1054.74 265.875ZM1047.76 259.852L1046.93 261.675L1046.95 261.681L1046.96 261.687L1047.76 259.852ZM1019.4 257.75V255.75H1017.4V257.75H1019.4ZM1019.4 354V356H1021.4V354H1019.4ZM1057.64 301.045L1059.4 300.087L1058.83 299.045H1057.64V301.045ZM1086.56 354V356H1089.93L1088.32 353.041L1086.56 354ZM1059.4 354L1057.64 354.943L1058.2 356H1059.4V354ZM1031.11 301.045V299.045H1027.77L1029.34 301.988L1031.11 301.045ZM996.801 354V237.636H992.801V354H996.801ZM994.801 239.636H1040.71V235.636H994.801V239.636ZM1040.71 239.636C1049.26 239.636 1056.44 241.167 1062.31 244.137L1064.11 240.568C1057.56 237.25 1049.73 235.636 1040.71 235.636V239.636ZM1062.32 244.143C1068.24 247.084 1072.68 251.228 1075.73 256.581L1079.21 254.601C1075.74 248.515 1070.68 243.833 1064.1 240.561L1062.32 244.143ZM1075.74 256.594C1078.83 261.923 1080.41 268.25 1080.41 275.648H1084.41C1084.41 267.667 1082.7 260.623 1079.2 254.587L1075.74 256.594ZM1080.41 275.648C1080.41 283.083 1078.81 289.361 1075.7 294.564L1079.13 296.618C1082.68 290.685 1084.41 283.667 1084.41 275.648H1080.41ZM1075.7 294.558C1072.59 299.721 1068.08 303.705 1062.08 306.506L1063.77 310.13C1070.43 307.022 1075.57 302.522 1079.13 296.623L1075.7 294.558ZM1062.08 306.508C1056.12 309.307 1048.81 310.75 1040.09 310.75V314.75C1049.24 314.75 1057.16 313.238 1063.78 310.128L1062.08 306.508ZM1040.09 310.75H1009.35V314.75H1040.09V310.75ZM1011.35 312.75V292.977H1007.35V312.75H1011.35ZM1009.35 294.977H1036.11V290.977H1009.35V294.977ZM1036.11 294.977C1040.97 294.977 1045.15 294.313 1048.58 292.893L1047.05 289.198C1044.26 290.354 1040.64 290.977 1036.11 290.977V294.977ZM1048.58 292.893C1052.03 291.461 1054.71 289.261 1056.47 286.264L1053.02 284.236C1051.75 286.391 1049.8 288.055 1047.05 289.198L1048.58 292.893ZM1056.46 286.283C1058.24 283.321 1059.07 279.74 1059.07 275.648H1055.07C1055.07 279.207 1054.35 282.027 1053.03 284.217L1056.46 286.283ZM1059.07 275.648C1059.07 271.519 1058.24 267.892 1056.47 264.864L1053.02 266.886C1054.35 269.161 1055.07 272.049 1055.07 275.648H1059.07ZM1056.48 264.883C1054.73 261.811 1052.04 259.531 1048.55 258.017L1046.96 261.687C1049.76 262.901 1051.73 264.636 1053.01 266.867L1056.48 264.883ZM1048.58 258.029C1045.13 256.475 1040.91 255.75 1035.99 255.75V259.75C1040.55 259.75 1044.17 260.427 1046.93 261.675L1048.58 258.029ZM1035.99 255.75H1019.4V259.75H1035.99V255.75ZM1017.4 257.75V354H1021.4V257.75H1017.4ZM1019.4 352H994.801V356H1019.4V352ZM1055.89 302.004L1084.81 354.959L1088.32 353.041L1059.4 300.087L1055.89 302.004ZM1086.56 352H1059.4V356H1086.56V352ZM1061.17 353.057L1032.87 300.103L1029.34 301.988L1057.64 354.943L1061.17 353.057ZM1031.11 303.045H1057.64V299.045H1031.11V303.045Z" fill="url(#paint1_linear_109_7)"/>
<defs>
<linearGradient id="paint0_linear_109_7" x1="13" y1="349" x2="1124.5" y2="63.9999" gradientUnits="userSpaceOnUse">
<stop stop-color="#463E7D"/>
<stop offset="1" stop-color="#30CCBC"/>
</linearGradient>
<linearGradient id="paint1_linear_109_7" x1="43" y1="354" x2="1090" y2="60" gradientUnits="userSpaceOnUse">
<stop stop-color="#463E7D"/>
<stop offset="1" stop-color="#30CCBC"/>
</linearGradient>
</defs>
</svg>
